<svg version="1" xmlns="http://www.w3.org/2000/svg" width="933.333" height="933.333" viewBox="0 0 700.000000 700.000000"><path d="M325.5 1.1c-70.5 4.9-139 31.8-195 76.5-14.2 11.3-41.7 38.8-52.9 52.9C41.7 175.7 18.3 225.7 7 282 2.2 305.8.6 322.6.6 350c0 43.8 6.8 82.5 21.5 121.8C59.2 571.5 140.5 649.5 242 682.6c69.4 22.7 146.6 22.7 216 0 81.1-26.5 149.6-81.3 193.2-154.9 59-99.6 64.5-224.3 14.3-328.4-18.3-37.9-38.7-66.6-68.4-96.3-19.4-19.4-32.5-30.1-54.9-45.1C479.4 16.1 402.1-4.2 325.5 1.1zM498 218.8c75.7 191.3 73.1 184.7 71.5 185-1.6.4-244.4-14.5-251-15.3-4-.5-4-.6-7.3-8.8-1.8-4.5-12.1-30.4-22.8-57.5L268.8 273l6.4-6.9C300.5 238.9 444.6 86 445 86c.3 0 24.1 59.7 53 132.8zm58.5-106.6c3.8 1.7 5.9 6.2 4.4 9.1-.7 1.2-7.9 11.1-16.1 21.9-14.2 18.9-15 19.8-18.2 19.8-2.6 0-4.1-.8-6-3.1-1.4-1.7-2.6-3.7-2.6-4.4 0-1.5 29.2-41.2 31.8-43.3 2-1.5 3.4-1.5 6.7 0zm45.4 93.4c2.9 3.6 2.8 8.9-.1 10.8-3.7 2.3-45.7 18.6-48.2 18.6-3.2 0-5.5-2-6.5-5.6-1.7-6.2-.6-7 24.9-17 12.9-5.1 24.5-9.3 25.7-9.3 1.2-.1 3.1 1.1 4.2 2.5zm-371.5 83.6c.8 1.3.8 2.3 0 3.5-.6.9-20.2 9.1-46 19-24.7 9.6-48.7 18.9-53.4 20.7-4.6 1.8-9.2 3.1-10.2 2.8-2-.5-3.1-3.2-2.3-5.4.7-1.7 106-42.8 108.9-42.5 1 .1 2.4 1 3 1.9zm377.1 5.9c12.1 2.3 23 4.8 24.3 5.5 4.4 2.8 1.9 13.4-3.2 13.4-1.3 0-13.3-2-26.7-4.6-17.4-3.2-24.8-5-25.6-6.1-2.1-2.7-1.6-8.4.9-11.1 1.8-1.8 2.9-2.2 5.3-1.7 1.6.3 12.9 2.4 25 4.6zM117.6 402.5c9.5 24.2 17.4 44.3 17.4 44.7 0 1.3-13 4.8-19.9 5.4-26.3 2.4-48.4-17.3-50.8-45.2-1.4-17.2 6.7-34.1 20.7-42.9 4.4-2.8 13-6.5 14.3-6.2.4.1 8.7 20 18.3 44.2zm151.8 119.1c9 48.3 16.3 88 16.2 88.1 0 .1-13.2 3.5-29.2 7.6l-29.2 7.5-23.7-61.2c-13.1-33.6-26.9-69.1-30.8-78.9-3.9-9.7-6.8-17.9-6.6-18 1.6-1.3 86.5-34.3 86.7-33.8.1.4 7.6 40.3 16.6 88.7z"/></svg>